<svg
  width="34"
  height="22"
  viewBox="0 0 34 22"
  fill="none"
  xmlns="http://www.w3.org/2000/svg"
>
  <mask
    id="path-1-outside-1"
    maskUnits="userSpaceOnUse"
    x="0"
    y="-0.545654"
    width="34"
    height="23"
    fill="black"
  >
    <rect fill="white" y="-0.545654" width="34" height="23"></rect>
    <path
      d="M33 5.89809C32.9993 5.41228 32.8564 4.91959 32.5404 4.51347L30.0049 1.26922C29.5803 0.729971 28.9341 0.455408 28.2883 0.454346C27.904 0.454346 27.5127 0.552846 27.1669 0.768471L24.6947 2.3066C24.4347 2.47241 23.9889 2.58622 23.5584 2.58328C23.2239 2.58472 22.9006 2.51778 22.6872 2.41235L20.2662 1.23966C19.8757 1.05166 19.4404 0.974596 19.0026 0.973846C18.3739 0.976783 17.7373 1.13128 17.2256 1.48585L16.9431 1.68403C16.7173 1.57135 16.3723 1.39966 15.9814 1.20516C15.5126 0.975346 14.9614 0.882658 14.4047 0.880846C13.9018 0.882283 13.3989 0.959783 12.9574 1.14628L11.3084 1.84991C11.0401 1.96628 10.6132 2.04228 10.1892 2.04041C9.76519 2.04222 9.33906 1.96622 9.07069 1.84991L7.42019 1.14591C7.11913 1.01753 6.79731 0.962658 6.47838 0.962283C6.11113 0.962658 5.74606 1.03503 5.40675 1.17247C5.06788 1.31066 4.75331 1.51466 4.50281 1.7946L1.49781 5.15997C1.16475 5.53191 0.999315 6.00028 1 6.46134C0.999315 7.01116 1.23456 7.56272 1.68831 7.94928L4.49144 10.3408L3.16169 11.728C2.79513 12.1105 2.61263 12.6065 2.61263 13.097C2.61194 13.6188 2.81919 14.1457 3.22969 14.5336L3.49944 14.7899C3.75363 15.031 4.05906 15.1844 4.37869 15.2662C4.21838 15.5611 4.13075 15.8844 4.13144 16.2083C4.13075 16.7305 4.338 17.257 4.74775 17.6454L4.74706 17.645L5.01763 17.9025C5.40275 18.2675 5.902 18.4493 6.39388 18.449C6.65825 18.4494 6.92294 18.3963 7.17169 18.2923C7.259 18.6465 7.43931 18.9832 7.72294 19.2522L7.9935 19.5097C8.37863 19.8747 8.87706 20.0565 9.36975 20.0562C9.75488 20.0566 10.1418 19.9431 10.4748 19.7228C10.5723 20.0362 10.7392 20.3333 10.9933 20.5747L11.2639 20.8322C11.6482 21.1972 12.1474 21.379 12.6394 21.3787C13.1634 21.3791 13.6925 21.1733 14.0833 20.7653L15.2586 19.538L16.8553 21.0158C17.2374 21.3703 17.728 21.5467 18.2123 21.5456C18.7443 21.5467 19.2809 21.3336 19.6726 20.9143L19.9274 20.6413C20.1474 20.405 20.2911 20.1253 20.3744 19.8333L20.9929 20.4042C21.3758 20.7573 21.8656 20.9329 22.3492 20.9325C22.8819 20.9329 23.4201 20.7198 23.8121 20.3002L24.0655 20.0275C24.3582 19.7148 24.5229 19.3275 24.5738 18.9319C24.7371 18.9737 24.9025 19.0021 25.0694 19.0021C25.6021 19.0021 26.1388 18.7893 26.5311 18.3702L26.7853 18.0974C27.1406 17.7167 27.3173 17.2283 27.3166 16.7469C27.3166 16.5975 27.2951 16.4488 27.262 16.3018C27.7038 16.2433 28.1322 16.0462 28.4579 15.6964L28.7128 15.4233C29.0681 15.0426 29.2441 14.5543 29.2441 14.0725C29.2448 13.5423 29.031 13.0074 28.6092 12.6177L28.1325 12.1773L32.4349 7.42047C32.8211 6.99222 32.9993 6.44097 33 5.89809ZM4.87588 14.254C4.64794 14.2533 4.425 14.1718 4.25081 14.0068L3.98063 13.7505C3.79369 13.5737 3.70138 13.3385 3.70063 13.097C3.70138 12.8705 3.78244 12.6494 3.94938 12.4752L6.67288 9.63315C6.85031 9.44803 7.08706 9.35534 7.32994 9.35503C7.55719 9.35541 7.77938 9.43722 7.955 9.60266L8.22406 9.85934C8.22406 9.85934 8.50263 10.2713 8.50331 10.5131C8.50263 10.6942 8.44806 10.8705 8.34225 11.0233C8.33319 11.0323 5.40275 14.0864 5.40275 14.0864C5.24713 14.1965 5.06313 14.2532 4.87588 14.254ZM7.051 17.0888C6.87394 17.2732 6.63756 17.3655 6.39469 17.3663C6.16675 17.3659 5.9445 17.2841 5.76963 17.119L5.49906 16.8619L5.49838 16.8615C5.31294 16.6855 5.21981 16.4496 5.21981 16.2081C5.21981 15.9816 5.30163 15.7605 5.46775 15.5863C5.46775 15.5863 9.09813 11.8072 9.12869 11.7708C9.30219 11.6039 9.52575 11.5177 9.75663 11.5173C9.98456 11.5177 10.2068 11.5992 10.3817 11.7646L10.6523 12.022C10.8384 12.198 10.9308 12.4337 10.9315 12.6755C10.9308 12.902 10.849 13.1234 10.6828 13.2976L7.051 17.0888ZM10.0264 18.6956C9.84975 18.8804 9.61344 18.9728 9.3705 18.9735C9.14256 18.9732 8.92031 18.8913 8.74544 18.7259L8.47413 18.4688C8.288 18.2924 8.19488 18.0568 8.19488 17.8153C8.19488 17.6132 8.26363 17.4172 8.39519 17.2539L10.9234 14.6151C11.094 14.4613 11.3078 14.3802 11.5293 14.3802C11.7572 14.3806 11.9794 14.462 12.1543 14.6275L12.4256 14.8849C12.6111 15.0609 12.7042 15.2965 12.7049 15.538C12.7041 15.7649 12.6216 15.9863 12.4561 16.1601L10.0264 18.6956ZM14.8303 18.4171L13.2962 20.0182C13.1194 20.2029 12.8828 20.2953 12.6399 20.296C12.4119 20.2957 12.1897 20.2138 12.0148 20.0484L11.7443 19.7913C11.5588 19.6153 11.4657 19.3793 11.465 19.1378C11.4657 18.9109 11.5475 18.6895 11.7138 18.516L13.2472 16.915C13.4246 16.7303 13.6614 16.6375 13.9043 16.6372C14.1315 16.6375 14.3544 16.719 14.5293 16.8848L14.8006 17.1419C14.9861 17.3179 15.0784 17.5535 15.0792 17.795C15.0783 18.0218 14.9965 18.2433 14.8303 18.4171ZM28.1577 14.0739C28.1574 14.2963 28.0777 14.5141 27.9163 14.6872L27.6621 14.9599C27.4846 15.1497 27.2439 15.2457 26.9974 15.2461C26.7738 15.2457 26.5548 15.1672 26.3811 15.0065L22.0976 11.0452L21.3569 11.8383L25.9418 16.0857C26.1328 16.2625 26.2287 16.5025 26.2301 16.7475C26.2287 16.9708 26.1498 17.1882 25.9887 17.3613L25.7353 17.6341C25.5578 17.8239 25.3171 17.9195 25.0706 17.9203C24.8469 17.9196 24.6273 17.8407 24.4549 17.681L20.1704 13.7198L19.4304 14.5128L23.2328 18.0291C23.4161 18.2047 23.5099 18.4385 23.5099 18.6785C23.5099 18.901 23.431 19.1188 23.2699 19.2915L23.0158 19.5643C22.839 19.7541 22.5976 19.8501 22.3504 19.8508C22.126 19.8501 21.9071 19.7712 21.7341 19.6115L17.9393 16.108H17.9386L17.9379 16.1073L17.1994 16.9018L17.2002 16.9025L17.2144 16.916L19.115 18.6701C19.2834 18.8432 19.3706 19.065 19.3713 19.2944C19.3706 19.5158 19.2924 19.7325 19.1313 19.9053L18.8771 20.1784C18.6997 20.3682 18.4597 20.4635 18.2139 20.4642C17.9903 20.4635 17.7713 20.385 17.5983 20.2247L15.9434 18.6923C16.0874 18.4098 16.1678 18.1033 16.1678 17.7957C16.1685 17.2738 15.9613 16.7477 15.5515 16.359L15.2802 16.1016C14.8959 15.7368 14.3973 15.5547 13.9054 15.5554C13.8672 15.5554 13.8287 15.5642 13.7913 15.5663C13.7913 15.5573 13.7934 15.5478 13.7934 15.5387C13.7941 15.0169 13.1771 14.1013 13.1771 14.1013L12.9065 13.8447C12.6189 13.5719 12.2679 13.4018 11.9029 13.3334C11.9782 13.1203 12.0208 12.8985 12.0208 12.6763C12.0208 12.1545 11.8142 11.628 11.4044 11.2397L11.1339 10.9823C10.7488 10.6172 10.2503 10.435 9.75831 10.4354C9.70088 10.4354 9.64419 10.447 9.58706 10.4522C9.57144 9.95109 9.36963 9.45041 8.97694 9.07734V9.07697L8.70713 8.82065C8.322 8.45522 7.82356 8.27303 7.33156 8.27341C6.80681 8.27303 6.2785 8.47884 5.88769 8.88684L5.24481 9.55772L2.39694 7.12872C2.19225 6.95347 2.09006 6.71128 2.08931 6.46259C2.09 6.25422 2.16094 6.05022 2.31219 5.88084L5.31713 2.51553C5.43638 2.38172 5.61275 2.26066 5.81931 2.1766C6.02588 2.0926 6.26038 2.04647 6.47963 2.04678C6.67056 2.04678 6.84975 2.08135 6.99306 2.14316L8.64281 2.8471C9.10788 3.0431 9.64781 3.12347 10.1904 3.12522C10.7337 3.12341 11.2729 3.04303 11.7381 2.8471L13.3871 2.14347C13.6413 2.0326 14.0248 1.96385 14.4063 1.96528C14.8281 1.96272 15.2506 2.05003 15.4956 2.1751C15.6513 2.25253 15.7989 2.32603 15.9359 2.39472L14.2542 3.57691C13.7138 3.95691 13.4226 4.56122 13.4233 5.17103C13.4226 5.57466 13.5506 5.98553 13.8109 6.33422L13.8103 6.33347L14.0324 6.63197C14.4542 7.19272 15.1119 7.48103 15.7694 7.48247C16.1406 7.48247 16.5188 7.38866 16.8559 7.18647L17.8616 6.58247C18.0668 6.45703 18.3765 6.37778 18.6968 6.37922C19.0732 6.37703 19.4524 6.48834 19.6804 6.65591L22.4629 8.65072C23.0821 9.09434 24.0908 9.91722 24.6497 10.435L27.8703 13.4127C28.0609 13.5895 28.1569 13.8285 28.1577 14.0739ZM31.6274 6.69659L27.337 11.4407L25.3891 9.64009C24.7789 9.07684 23.7728 8.25547 23.0979 7.77072L20.3163 5.77591C19.8446 5.44178 19.2672 5.29734 18.6963 5.29522C18.2105 5.29666 17.7211 5.40253 17.2986 5.65409L16.2936 6.25809C16.1394 6.35078 15.9576 6.39809 15.7688 6.39847C15.4313 6.39959 15.0936 6.24209 14.9053 5.98572L14.6838 5.68759L14.6831 5.68684C14.5653 5.52797 14.5104 5.34978 14.5096 5.16941C14.511 4.89666 14.6368 4.63197 14.8805 4.45997L17.8542 2.3706C18.1113 2.18447 18.5688 2.05391 19.0033 2.05716C19.3051 2.05572 19.5934 2.11641 19.7908 2.21391L22.2118 3.3866C22.6245 3.58478 23.0903 3.66584 23.5589 3.66697C24.1611 3.66403 24.7698 3.53316 25.2713 3.22516L27.7443 1.68672C27.9021 1.58822 28.0915 1.53728 28.289 1.53728C28.6228 1.5366 28.9573 1.68785 29.1468 1.93472L31.6823 5.17897C31.8284 5.36478 31.9131 5.62691 31.9131 5.89859C31.9136 6.20241 31.8063 6.50134 31.6274 6.69659Z"
    ></path>
  </mask>
  <path
    d="M33 5.89809C32.9993 5.41228 32.8564 4.91959 32.5404 4.51347L30.0049 1.26922C29.5803 0.729971 28.9341 0.455408 28.2883 0.454346C27.904 0.454346 27.5127 0.552846 27.1669 0.768471L24.6947 2.3066C24.4347 2.47241 23.9889 2.58622 23.5584 2.58328C23.2239 2.58472 22.9006 2.51778 22.6872 2.41235L20.2662 1.23966C19.8757 1.05166 19.4404 0.974596 19.0026 0.973846C18.3739 0.976783 17.7373 1.13128 17.2256 1.48585L16.9431 1.68403C16.7173 1.57135 16.3723 1.39966 15.9814 1.20516C15.5126 0.975346 14.9614 0.882658 14.4047 0.880846C13.9018 0.882283 13.3989 0.959783 12.9574 1.14628L11.3084 1.84991C11.0401 1.96628 10.6132 2.04228 10.1892 2.04041C9.76519 2.04222 9.33906 1.96622 9.07069 1.84991L7.42019 1.14591C7.11913 1.01753 6.79731 0.962658 6.47838 0.962283C6.11113 0.962658 5.74606 1.03503 5.40675 1.17247C5.06788 1.31066 4.75331 1.51466 4.50281 1.7946L1.49781 5.15997C1.16475 5.53191 0.999315 6.00028 1 6.46134C0.999315 7.01116 1.23456 7.56272 1.68831 7.94928L4.49144 10.3408L3.16169 11.728C2.79513 12.1105 2.61263 12.6065 2.61263 13.097C2.61194 13.6188 2.81919 14.1457 3.22969 14.5336L3.49944 14.7899C3.75363 15.031 4.05906 15.1844 4.37869 15.2662C4.21838 15.5611 4.13075 15.8844 4.13144 16.2083C4.13075 16.7305 4.338 17.257 4.74775 17.6454L4.74706 17.645L5.01763 17.9025C5.40275 18.2675 5.902 18.4493 6.39388 18.449C6.65825 18.4494 6.92294 18.3963 7.17169 18.2923C7.259 18.6465 7.43931 18.9832 7.72294 19.2522L7.9935 19.5097C8.37863 19.8747 8.87706 20.0565 9.36975 20.0562C9.75488 20.0566 10.1418 19.9431 10.4748 19.7228C10.5723 20.0362 10.7392 20.3333 10.9933 20.5747L11.2639 20.8322C11.6482 21.1972 12.1474 21.379 12.6394 21.3787C13.1634 21.3791 13.6925 21.1733 14.0833 20.7653L15.2586 19.538L16.8553 21.0158C17.2374 21.3703 17.728 21.5467 18.2123 21.5456C18.7443 21.5467 19.2809 21.3336 19.6726 20.9143L19.9274 20.6413C20.1474 20.405 20.2911 20.1253 20.3744 19.8333L20.9929 20.4042C21.3758 20.7573 21.8656 20.9329 22.3492 20.9325C22.8819 20.9329 23.4201 20.7198 23.8121 20.3002L24.0655 20.0275C24.3582 19.7148 24.5229 19.3275 24.5738 18.9319C24.7371 18.9737 24.9025 19.0021 25.0694 19.0021C25.6021 19.0021 26.1388 18.7893 26.5311 18.3702L26.7853 18.0974C27.1406 17.7167 27.3173 17.2283 27.3166 16.7469C27.3166 16.5975 27.2951 16.4488 27.262 16.3018C27.7038 16.2433 28.1322 16.0462 28.4579 15.6964L28.7128 15.4233C29.0681 15.0426 29.2441 14.5543 29.2441 14.0725C29.2448 13.5423 29.031 13.0074 28.6092 12.6177L28.1325 12.1773L32.4349 7.42047C32.8211 6.99222 32.9993 6.44097 33 5.89809ZM4.87588 14.254C4.64794 14.2533 4.425 14.1718 4.25081 14.0068L3.98063 13.7505C3.79369 13.5737 3.70138 13.3385 3.70063 13.097C3.70138 12.8705 3.78244 12.6494 3.94938 12.4752L6.67288 9.63315C6.85031 9.44803 7.08706 9.35534 7.32994 9.35503C7.55719 9.35541 7.77938 9.43722 7.955 9.60266L8.22406 9.85934C8.22406 9.85934 8.50263 10.2713 8.50331 10.5131C8.50263 10.6942 8.44806 10.8705 8.34225 11.0233C8.33319 11.0323 5.40275 14.0864 5.40275 14.0864C5.24713 14.1965 5.06313 14.2532 4.87588 14.254ZM7.051 17.0888C6.87394 17.2732 6.63756 17.3655 6.39469 17.3663C6.16675 17.3659 5.9445 17.2841 5.76963 17.119L5.49906 16.8619L5.49838 16.8615C5.31294 16.6855 5.21981 16.4496 5.21981 16.2081C5.21981 15.9816 5.30163 15.7605 5.46775 15.5863C5.46775 15.5863 9.09813 11.8072 9.12869 11.7708C9.30219 11.6039 9.52575 11.5177 9.75663 11.5173C9.98456 11.5177 10.2068 11.5992 10.3817 11.7646L10.6523 12.022C10.8384 12.198 10.9308 12.4337 10.9315 12.6755C10.9308 12.902 10.849 13.1234 10.6828 13.2976L7.051 17.0888ZM10.0264 18.6956C9.84975 18.8804 9.61344 18.9728 9.3705 18.9735C9.14256 18.9732 8.92031 18.8913 8.74544 18.7259L8.47413 18.4688C8.288 18.2924 8.19488 18.0568 8.19488 17.8153C8.19488 17.6132 8.26363 17.4172 8.39519 17.2539L10.9234 14.6151C11.094 14.4613 11.3078 14.3802 11.5293 14.3802C11.7572 14.3806 11.9794 14.462 12.1543 14.6275L12.4256 14.8849C12.6111 15.0609 12.7042 15.2965 12.7049 15.538C12.7041 15.7649 12.6216 15.9863 12.4561 16.1601L10.0264 18.6956ZM14.8303 18.4171L13.2962 20.0182C13.1194 20.2029 12.8828 20.2953 12.6399 20.296C12.4119 20.2957 12.1897 20.2138 12.0148 20.0484L11.7443 19.7913C11.5588 19.6153 11.4657 19.3793 11.465 19.1378C11.4657 18.9109 11.5475 18.6895 11.7138 18.516L13.2472 16.915C13.4246 16.7303 13.6614 16.6375 13.9043 16.6372C14.1315 16.6375 14.3544 16.719 14.5293 16.8848L14.8006 17.1419C14.9861 17.3179 15.0784 17.5535 15.0792 17.795C15.0783 18.0218 14.9965 18.2433 14.8303 18.4171ZM28.1577 14.0739C28.1574 14.2963 28.0777 14.5141 27.9163 14.6872L27.6621 14.9599C27.4846 15.1497 27.2439 15.2457 26.9974 15.2461C26.7738 15.2457 26.5548 15.1672 26.3811 15.0065L22.0976 11.0452L21.3569 11.8383L25.9418 16.0857C26.1328 16.2625 26.2287 16.5025 26.2301 16.7475C26.2287 16.9708 26.1498 17.1882 25.9887 17.3613L25.7353 17.6341C25.5578 17.8239 25.3171 17.9195 25.0706 17.9203C24.8469 17.9196 24.6273 17.8407 24.4549 17.681L20.1704 13.7198L19.4304 14.5128L23.2328 18.0291C23.4161 18.2047 23.5099 18.4385 23.5099 18.6785C23.5099 18.901 23.431 19.1188 23.2699 19.2915L23.0158 19.5643C22.839 19.7541 22.5976 19.8501 22.3504 19.8508C22.126 19.8501 21.9071 19.7712 21.7341 19.6115L17.9393 16.108H17.9386L17.9379 16.1073L17.1994 16.9018L17.2002 16.9025L17.2144 16.916L19.115 18.6701C19.2834 18.8432 19.3706 19.065 19.3713 19.2944C19.3706 19.5158 19.2924 19.7325 19.1313 19.9053L18.8771 20.1784C18.6997 20.3682 18.4597 20.4635 18.2139 20.4642C17.9903 20.4635 17.7713 20.385 17.5983 20.2247L15.9434 18.6923C16.0874 18.4098 16.1678 18.1033 16.1678 17.7957C16.1685 17.2738 15.9613 16.7477 15.5515 16.359L15.2802 16.1016C14.8959 15.7368 14.3973 15.5547 13.9054 15.5554C13.8672 15.5554 13.8287 15.5642 13.7913 15.5663C13.7913 15.5573 13.7934 15.5478 13.7934 15.5387C13.7941 15.0169 13.1771 14.1013 13.1771 14.1013L12.9065 13.8447C12.6189 13.5719 12.2679 13.4018 11.9029 13.3334C11.9782 13.1203 12.0208 12.8985 12.0208 12.6763C12.0208 12.1545 11.8142 11.628 11.4044 11.2397L11.1339 10.9823C10.7488 10.6172 10.2503 10.435 9.75831 10.4354C9.70088 10.4354 9.64419 10.447 9.58706 10.4522C9.57144 9.95109 9.36963 9.45041 8.97694 9.07734V9.07697L8.70713 8.82065C8.322 8.45522 7.82356 8.27303 7.33156 8.27341C6.80681 8.27303 6.2785 8.47884 5.88769 8.88684L5.24481 9.55772L2.39694 7.12872C2.19225 6.95347 2.09006 6.71128 2.08931 6.46259C2.09 6.25422 2.16094 6.05022 2.31219 5.88084L5.31713 2.51553C5.43638 2.38172 5.61275 2.26066 5.81931 2.1766C6.02588 2.0926 6.26038 2.04647 6.47963 2.04678C6.67056 2.04678 6.84975 2.08135 6.99306 2.14316L8.64281 2.8471C9.10788 3.0431 9.64781 3.12347 10.1904 3.12522C10.7337 3.12341 11.2729 3.04303 11.7381 2.8471L13.3871 2.14347C13.6413 2.0326 14.0248 1.96385 14.4063 1.96528C14.8281 1.96272 15.2506 2.05003 15.4956 2.1751C15.6513 2.25253 15.7989 2.32603 15.9359 2.39472L14.2542 3.57691C13.7138 3.95691 13.4226 4.56122 13.4233 5.17103C13.4226 5.57466 13.5506 5.98553 13.8109 6.33422L13.8103 6.33347L14.0324 6.63197C14.4542 7.19272 15.1119 7.48103 15.7694 7.48247C16.1406 7.48247 16.5188 7.38866 16.8559 7.18647L17.8616 6.58247C18.0668 6.45703 18.3765 6.37778 18.6968 6.37922C19.0732 6.37703 19.4524 6.48834 19.6804 6.65591L22.4629 8.65072C23.0821 9.09434 24.0908 9.91722 24.6497 10.435L27.8703 13.4127C28.0609 13.5895 28.1569 13.8285 28.1577 14.0739ZM31.6274 6.69659L27.337 11.4407L25.3891 9.64009C24.7789 9.07684 23.7728 8.25547 23.0979 7.77072L20.3163 5.77591C19.8446 5.44178 19.2672 5.29734 18.6963 5.29522C18.2105 5.29666 17.7211 5.40253 17.2986 5.65409L16.2936 6.25809C16.1394 6.35078 15.9576 6.39809 15.7688 6.39847C15.4313 6.39959 15.0936 6.24209 14.9053 5.98572L14.6838 5.68759L14.6831 5.68684C14.5653 5.52797 14.5104 5.34978 14.5096 5.16941C14.511 4.89666 14.6368 4.63197 14.8805 4.45997L17.8542 2.3706C18.1113 2.18447 18.5688 2.05391 19.0033 2.05716C19.3051 2.05572 19.5934 2.11641 19.7908 2.21391L22.2118 3.3866C22.6245 3.58478 23.0903 3.66584 23.5589 3.66697C24.1611 3.66403 24.7698 3.53316 25.2713 3.22516L27.7443 1.68672C27.9021 1.58822 28.0915 1.53728 28.289 1.53728C28.6228 1.5366 28.9573 1.68785 29.1468 1.93472L31.6823 5.17897C31.8284 5.36478 31.9131 5.62691 31.9131 5.89859C31.9136 6.20241 31.8063 6.50134 31.6274 6.69659Z"
    fill="#6A50FF"
  ></path>
  <path
    d="M33 5.89809C32.9993 5.41228 32.8564 4.91959 32.5404 4.51347L30.0049 1.26922C29.5803 0.729971 28.9341 0.455408 28.2883 0.454346C27.904 0.454346 27.5127 0.552846 27.1669 0.768471L24.6947 2.3066C24.4347 2.47241 23.9889 2.58622 23.5584 2.58328C23.2239 2.58472 22.9006 2.51778 22.6872 2.41235L20.2662 1.23966C19.8757 1.05166 19.4404 0.974596 19.0026 0.973846C18.3739 0.976783 17.7373 1.13128 17.2256 1.48585L16.9431 1.68403C16.7173 1.57135 16.3723 1.39966 15.9814 1.20516C15.5126 0.975346 14.9614 0.882658 14.4047 0.880846C13.9018 0.882283 13.3989 0.959783 12.9574 1.14628L11.3084 1.84991C11.0401 1.96628 10.6132 2.04228 10.1892 2.04041C9.76519 2.04222 9.33906 1.96622 9.07069 1.84991L7.42019 1.14591C7.11913 1.01753 6.79731 0.962658 6.47838 0.962283C6.11113 0.962658 5.74606 1.03503 5.40675 1.17247C5.06788 1.31066 4.75331 1.51466 4.50281 1.7946L1.49781 5.15997C1.16475 5.53191 0.999315 6.00028 1 6.46134C0.999315 7.01116 1.23456 7.56272 1.68831 7.94928L4.49144 10.3408L3.16169 11.728C2.79513 12.1105 2.61263 12.6065 2.61263 13.097C2.61194 13.6188 2.81919 14.1457 3.22969 14.5336L3.49944 14.7899C3.75363 15.031 4.05906 15.1844 4.37869 15.2662C4.21838 15.5611 4.13075 15.8844 4.13144 16.2083C4.13075 16.7305 4.338 17.257 4.74775 17.6454L4.74706 17.645L5.01763 17.9025C5.40275 18.2675 5.902 18.4493 6.39388 18.449C6.65825 18.4494 6.92294 18.3963 7.17169 18.2923C7.259 18.6465 7.43931 18.9832 7.72294 19.2522L7.9935 19.5097C8.37863 19.8747 8.87706 20.0565 9.36975 20.0562C9.75488 20.0566 10.1418 19.9431 10.4748 19.7228C10.5723 20.0362 10.7392 20.3333 10.9933 20.5747L11.2639 20.8322C11.6482 21.1972 12.1474 21.379 12.6394 21.3787C13.1634 21.3791 13.6925 21.1733 14.0833 20.7653L15.2586 19.538L16.8553 21.0158C17.2374 21.3703 17.728 21.5467 18.2123 21.5456C18.7443 21.5467 19.2809 21.3336 19.6726 20.9143L19.9274 20.6413C20.1474 20.405 20.2911 20.1253 20.3744 19.8333L20.9929 20.4042C21.3758 20.7573 21.8656 20.9329 22.3492 20.9325C22.8819 20.9329 23.4201 20.7198 23.8121 20.3002L24.0655 20.0275C24.3582 19.7148 24.5229 19.3275 24.5738 18.9319C24.7371 18.9737 24.9025 19.0021 25.0694 19.0021C25.6021 19.0021 26.1388 18.7893 26.5311 18.3702L26.7853 18.0974C27.1406 17.7167 27.3173 17.2283 27.3166 16.7469C27.3166 16.5975 27.2951 16.4488 27.262 16.3018C27.7038 16.2433 28.1322 16.0462 28.4579 15.6964L28.7128 15.4233C29.0681 15.0426 29.2441 14.5543 29.2441 14.0725C29.2448 13.5423 29.031 13.0074 28.6092 12.6177L28.1325 12.1773L32.4349 7.42047C32.8211 6.99222 32.9993 6.44097 33 5.89809ZM4.87588 14.254C4.64794 14.2533 4.425 14.1718 4.25081 14.0068L3.98063 13.7505C3.79369 13.5737 3.70138 13.3385 3.70063 13.097C3.70138 12.8705 3.78244 12.6494 3.94938 12.4752L6.67288 9.63315C6.85031 9.44803 7.08706 9.35534 7.32994 9.35503C7.55719 9.35541 7.77938 9.43722 7.955 9.60266L8.22406 9.85934C8.22406 9.85934 8.50263 10.2713 8.50331 10.5131C8.50263 10.6942 8.44806 10.8705 8.34225 11.0233C8.33319 11.0323 5.40275 14.0864 5.40275 14.0864C5.24713 14.1965 5.06313 14.2532 4.87588 14.254ZM7.051 17.0888C6.87394 17.2732 6.63756 17.3655 6.39469 17.3663C6.16675 17.3659 5.9445 17.2841 5.76963 17.119L5.49906 16.8619L5.49838 16.8615C5.31294 16.6855 5.21981 16.4496 5.21981 16.2081C5.21981 15.9816 5.30163 15.7605 5.46775 15.5863C5.46775 15.5863 9.09813 11.8072 9.12869 11.7708C9.30219 11.6039 9.52575 11.5177 9.75663 11.5173C9.98456 11.5177 10.2068 11.5992 10.3817 11.7646L10.6523 12.022C10.8384 12.198 10.9308 12.4337 10.9315 12.6755C10.9308 12.902 10.849 13.1234 10.6828 13.2976L7.051 17.0888ZM10.0264 18.6956C9.84975 18.8804 9.61344 18.9728 9.3705 18.9735C9.14256 18.9732 8.92031 18.8913 8.74544 18.7259L8.47413 18.4688C8.288 18.2924 8.19488 18.0568 8.19488 17.8153C8.19488 17.6132 8.26363 17.4172 8.39519 17.2539L10.9234 14.6151C11.094 14.4613 11.3078 14.3802 11.5293 14.3802C11.7572 14.3806 11.9794 14.462 12.1543 14.6275L12.4256 14.8849C12.6111 15.0609 12.7042 15.2965 12.7049 15.538C12.7041 15.7649 12.6216 15.9863 12.4561 16.1601L10.0264 18.6956ZM14.8303 18.4171L13.2962 20.0182C13.1194 20.2029 12.8828 20.2953 12.6399 20.296C12.4119 20.2957 12.1897 20.2138 12.0148 20.0484L11.7443 19.7913C11.5588 19.6153 11.4657 19.3793 11.465 19.1378C11.4657 18.9109 11.5475 18.6895 11.7138 18.516L13.2472 16.915C13.4246 16.7303 13.6614 16.6375 13.9043 16.6372C14.1315 16.6375 14.3544 16.719 14.5293 16.8848L14.8006 17.1419C14.9861 17.3179 15.0784 17.5535 15.0792 17.795C15.0783 18.0218 14.9965 18.2433 14.8303 18.4171ZM28.1577 14.0739C28.1574 14.2963 28.0777 14.5141 27.9163 14.6872L27.6621 14.9599C27.4846 15.1497 27.2439 15.2457 26.9974 15.2461C26.7738 15.2457 26.5548 15.1672 26.3811 15.0065L22.0976 11.0452L21.3569 11.8383L25.9418 16.0857C26.1328 16.2625 26.2287 16.5025 26.2301 16.7475C26.2287 16.9708 26.1498 17.1882 25.9887 17.3613L25.7353 17.6341C25.5578 17.8239 25.3171 17.9195 25.0706 17.9203C24.8469 17.9196 24.6273 17.8407 24.4549 17.681L20.1704 13.7198L19.4304 14.5128L23.2328 18.0291C23.4161 18.2047 23.5099 18.4385 23.5099 18.6785C23.5099 18.901 23.431 19.1188 23.2699 19.2915L23.0158 19.5643C22.839 19.7541 22.5976 19.8501 22.3504 19.8508C22.126 19.8501 21.9071 19.7712 21.7341 19.6115L17.9393 16.108H17.9386L17.9379 16.1073L17.1994 16.9018L17.2002 16.9025L17.2144 16.916L19.115 18.6701C19.2834 18.8432 19.3706 19.065 19.3713 19.2944C19.3706 19.5158 19.2924 19.7325 19.1313 19.9053L18.8771 20.1784C18.6997 20.3682 18.4597 20.4635 18.2139 20.4642C17.9903 20.4635 17.7713 20.385 17.5983 20.2247L15.9434 18.6923C16.0874 18.4098 16.1678 18.1033 16.1678 17.7957C16.1685 17.2738 15.9613 16.7477 15.5515 16.359L15.2802 16.1016C14.8959 15.7368 14.3973 15.5547 13.9054 15.5554C13.8672 15.5554 13.8287 15.5642 13.7913 15.5663C13.7913 15.5573 13.7934 15.5478 13.7934 15.5387C13.7941 15.0169 13.1771 14.1013 13.1771 14.1013L12.9065 13.8447C12.6189 13.5719 12.2679 13.4018 11.9029 13.3334C11.9782 13.1203 12.0208 12.8985 12.0208 12.6763C12.0208 12.1545 11.8142 11.628 11.4044 11.2397L11.1339 10.9823C10.7488 10.6172 10.2503 10.435 9.75831 10.4354C9.70088 10.4354 9.64419 10.447 9.58706 10.4522C9.57144 9.95109 9.36963 9.45041 8.97694 9.07734V9.07697L8.70713 8.82065C8.322 8.45522 7.82356 8.27303 7.33156 8.27341C6.80681 8.27303 6.2785 8.47884 5.88769 8.88684L5.24481 9.55772L2.39694 7.12872C2.19225 6.95347 2.09006 6.71128 2.08931 6.46259C2.09 6.25422 2.16094 6.05022 2.31219 5.88084L5.31713 2.51553C5.43638 2.38172 5.61275 2.26066 5.81931 2.1766C6.02588 2.0926 6.26038 2.04647 6.47963 2.04678C6.67056 2.04678 6.84975 2.08135 6.99306 2.14316L8.64281 2.8471C9.10788 3.0431 9.64781 3.12347 10.1904 3.12522C10.7337 3.12341 11.2729 3.04303 11.7381 2.8471L13.3871 2.14347C13.6413 2.0326 14.0248 1.96385 14.4063 1.96528C14.8281 1.96272 15.2506 2.05003 15.4956 2.1751C15.6513 2.25253 15.7989 2.32603 15.9359 2.39472L14.2542 3.57691C13.7138 3.95691 13.4226 4.56122 13.4233 5.17103C13.4226 5.57466 13.5506 5.98553 13.8109 6.33422L13.8103 6.33347L14.0324 6.63197C14.4542 7.19272 15.1119 7.48103 15.7694 7.48247C16.1406 7.48247 16.5188 7.38866 16.8559 7.18647L17.8616 6.58247C18.0668 6.45703 18.3765 6.37778 18.6968 6.37922C19.0732 6.37703 19.4524 6.48834 19.6804 6.65591L22.4629 8.65072C23.0821 9.09434 24.0908 9.91722 24.6497 10.435L27.8703 13.4127C28.0609 13.5895 28.1569 13.8285 28.1577 14.0739ZM31.6274 6.69659L27.337 11.4407L25.3891 9.64009C24.7789 9.07684 23.7728 8.25547 23.0979 7.77072L20.3163 5.77591C19.8446 5.44178 19.2672 5.29734 18.6963 5.29522C18.2105 5.29666 17.7211 5.40253 17.2986 5.65409L16.2936 6.25809C16.1394 6.35078 15.9576 6.39809 15.7688 6.39847C15.4313 6.39959 15.0936 6.24209 14.9053 5.98572L14.6838 5.68759L14.6831 5.68684C14.5653 5.52797 14.5104 5.34978 14.5096 5.16941C14.511 4.89666 14.6368 4.63197 14.8805 4.45997L17.8542 2.3706C18.1113 2.18447 18.5688 2.05391 19.0033 2.05716C19.3051 2.05572 19.5934 2.11641 19.7908 2.21391L22.2118 3.3866C22.6245 3.58478 23.0903 3.66584 23.5589 3.66697C24.1611 3.66403 24.7698 3.53316 25.2713 3.22516L27.7443 1.68672C27.9021 1.58822 28.0915 1.53728 28.289 1.53728C28.6228 1.5366 28.9573 1.68785 29.1468 1.93472L31.6823 5.17897C31.8284 5.36478 31.9131 5.62691 31.9131 5.89859C31.9136 6.20241 31.8063 6.50134 31.6274 6.69659Z"
    stroke="#6A50FF"
    stroke-width="0.4"
    mask="url(#path-1-outside-1)"
  ></path>
</svg>
