<svg
  width="24"
  height="31"
  viewBox="0 0 24 31"
  fill="none"
  xmlns="http://www.w3.org/2000/svg"
>
  <path
    d="M16.1905 2.38095C15.6181 2.38095 15.0857 2.55633 14.6445 2.856C14.2668 1.77886 13.2518 1 12.0476 1C10.5244 1 9.28572 2.23871 9.28572 3.7619V4.14581C8.87765 3.90829 8.41019 3.7619 7.90476 3.7619C6.38157 3.7619 5.14286 5.00062 5.14286 6.52381V6.90771C4.73479 6.67019 4.26733 6.52381 3.76191 6.52381C2.23871 6.52381 1 7.76252 1 9.28571V18.9524C1 25.0438 5.95624 30 12.0476 30C14.9987 30 17.7731 28.851 19.8597 26.7637C21.9463 24.6778 23.0952 21.9028 23.0952 18.9524V9.97136C23.0952 8.83207 22.1659 7.90476 21.0238 7.90476C20.2436 7.90476 19.531 8.17474 18.9524 8.61319V5.14286C18.9524 3.61967 17.7137 2.38095 16.1905 2.38095ZM10.6667 3.7619C10.6667 3.00031 11.286 2.38095 12.0476 2.38095C12.8092 2.38095 13.4286 3.00031 13.4286 3.7619V5.14286V14.8095H10.6667V6.52381V3.7619ZM6.52381 6.52381C6.52381 5.76221 7.14317 5.14286 7.90476 5.14286C8.66636 5.14286 9.28572 5.76221 9.28572 6.52381V14.8095H6.52381V9.28571V6.52381ZM21.0238 9.28571C21.4043 9.28571 21.7143 9.59298 21.7143 9.97136V18.9524C21.7143 21.5341 20.709 23.9618 18.8833 25.7874C17.057 27.6137 14.63 28.619 12.0476 28.619C6.71714 28.619 2.38095 24.2829 2.38095 18.9524V9.28571C2.38095 8.52412 3.00031 7.90476 3.76191 7.90476C4.5235 7.90476 5.14286 8.52412 5.14286 9.28571V14.8095H3.76191V16.1905H16.1905V14.8095H14.8095V5.14286C14.8095 4.38126 15.4289 3.7619 16.1905 3.7619C16.9521 3.7619 17.5714 4.38126 17.5714 5.14286V11.3571V12.7381V16.3845C15.0885 17.2621 13.4286 19.6014 13.4286 22.2425V23.0952H14.8095V22.2432C14.8095 20.1593 16.1373 18.3171 18.1148 17.6577L18.9524 17.3788V12.7381V11.3571C18.9524 10.2151 19.8818 9.28571 21.0238 9.28571Z"
    fill="#6A50FF"
    stroke="#6A50FF"
    stroke-width="0.2"
  ></path>
</svg>
