<svg
  width="34"
  height="34"
  viewBox="0 0 34 34"
  fill="none"
  xmlns="http://www.w3.org/2000/svg"
>
  <path
    d="M26.4833 22.6859C26.7127 22.5784 26.8717 22.3469 26.8717 22.0778C26.8717 21.7066 26.5689 21.4052 26.1954 21.4052H25.9185L23.7371 16.4611C23.6291 16.2165 23.386 16.0586 23.1176 16.0586C22.8491 16.0586 22.6061 16.2165 22.4983 16.4611L20.3169 21.4052H20.04C19.6665 21.4052 19.3637 21.7066 19.3637 22.0778C19.3637 22.3469 19.5227 22.5784 19.7521 22.6859L18.9396 24.5273C18.7895 24.8675 18.9452 25.2643 19.287 25.4135C19.6292 25.5628 20.0282 25.408 20.1782 25.0678L21.2007 22.7505H25.0347L26.0572 25.0678C26.1684 25.32 26.4165 25.4703 26.677 25.4703C26.7676 25.4703 26.8598 25.4522 26.9484 25.4135C27.2902 25.2643 27.4461 24.8675 27.2958 24.5273L26.4833 22.6859ZM21.7941 21.4052L23.1176 18.4055L24.441 21.4052H21.7941Z"
    fill="#6A50FF"
  ></path>
  <path
    d="M7.32025 13.8212C7.02165 13.988 6.91233 14.3696 7.07607 14.6738C7.18829 14.882 7.39947 15 7.61716 15C7.71734 15 7.81896 14.975 7.91311 14.9225C9.28787 14.1545 10.3455 12.96 10.9641 11.5514C11.583 12.96 12.6404 14.1545 14.0151 14.9225C14.1093 14.975 14.2109 15 14.3111 15C14.5287 15 14.7399 14.882 14.8521 14.6738C15.0159 14.3696 14.9066 13.988 14.608 13.8212C12.9987 12.9222 11.9155 11.3157 11.6466 9.50037H14.3835C14.724 9.50037 15 9.21928 15 8.87246C15 8.52563 14.724 8.24454 14.3835 8.24454H11.5806V5.62791C11.5806 5.28109 11.3046 5 10.9641 5C10.6236 5 10.3476 5.28109 10.3476 5.62791V8.24454H8.12069C7.78019 8.24454 7.50422 8.52563 7.50422 8.87246C7.50422 9.21928 7.78019 9.50037 8.12069 9.50037H10.2817C10.0127 11.3157 8.92955 12.9225 7.32025 13.8212Z"
    fill="#6A50FF"
  ></path>
  <path
    d="M20.2632 10.0978C20.2669 11.5105 19.9369 12.9041 19.3 14.1651C18.5449 15.6761 17.3841 16.947 15.9476 17.8355C14.5111 18.724 12.8557 19.195 11.1667 19.1956C9.75419 19.1993 8.3608 18.8692 7.10001 18.2323L1 20.2659L3.03334 14.1651C2.39651 12.9041 2.06649 11.5105 2.07018 10.0978C2.07083 8.40859 2.54171 6.75289 3.43007 5.31618C4.31843 3.87948 5.58919 2.71852 7.10001 1.96333C8.3608 1.32641 9.75419 0.996347 11.1667 1.00003H11.7018C13.9324 1.12311 16.0392 2.06475 17.6189 3.64466C19.1986 5.22457 20.1401 7.33172 20.2632 9.56266V10.0978Z"
    stroke="#6A50FF"
    stroke-width="1.6"
    stroke-linecap="round"
    stroke-linejoin="round"
  ></path>
  <path
    d="M19.8236 13.2354H30.804C31.3865 13.2354 31.9451 13.4667 32.3569 13.8786C32.7687 14.2904 33.0001 14.849 33.0001 15.4314V33.0001L28.608 28.608H15.4314C14.849 28.608 14.2904 28.3766 13.8786 27.9647C13.4667 27.5529 13.2353 26.9943 13.2353 26.4119V19.353"
    stroke="#6A50FF"
    stroke-width="1.6"
    stroke-linecap="round"
    stroke-linejoin="round"
  ></path>
</svg>
